<svg width="600" height="500" viewBox="0 0 600 500" fill="none" xmlns="http://www.w3.org/2000/svg">
  <!-- Background -->
  <rect width="600" height="500" rx="16" fill="#f0f9ff"/>
  
  <!-- Phone mockup -->
  <rect x="150" y="50" width="300" height="400" rx="24" fill="#ffffff" stroke="#e0f2fe" stroke-width="2"/>
  
  <!-- Screen content -->
  <!-- Header -->
  <rect x="170" y="80" width="260" height="40" rx="8" fill="#0ea5e9"/>
  <circle cx="200" cy="100" r="10" fill="#bae6fd"/>
  <rect x="220" y="92" width="120" height="8" rx="4" fill="#ffffff"/>
  <rect x="220" y="104" width="80" height="6" rx="3" fill="#e0f2fe"/>
  
  <!-- Balance Card -->
  <rect x="170" y="140" width="260" height="80" rx="12" fill="#f0f9ff"/>
  <rect x="190" y="160" width="100" height="12" rx="6" fill="#bae6fd"/>
  <rect x="190" y="180" width="140" height="20" rx="10" fill="#0ea5e9"/>
  
  <!-- Transactions -->
  <rect x="170" y="240" width="260" height="40" rx="8" fill="#ffffff" stroke="#e0f2fe" stroke-width="1"/>
  <circle cx="190" cy="260" r="12" fill="#7dd3fc"/>
  <rect x="210" y="252" width="80" height="8" rx="4" fill="#cbd5e1"/>
  <rect x="210" y="264" width="60" height="6" rx="3" fill="#e2e8f0"/>
  <rect x="350" y="252" width="60" height="16" rx="8" fill="#10b981"/>
  
  <rect x="170" y="290" width="260" height="40" rx="8" fill="#ffffff" stroke="#e0f2fe" stroke-width="1"/>
  <circle cx="190" cy="310" r="12" fill="#38bdf8"/>
  <rect x="210" y="302" width="100" height="8" rx="4" fill="#cbd5e1"/>
  <rect x="210" y="314" width="70" height="6" rx="3" fill="#e2e8f0"/>
  <rect x="350" y="302" width="60" height="16" rx="8" fill="#ef4444"/>
  
  <rect x="170" y="340" width="260" height="40" rx="8" fill="#ffffff" stroke="#e0f2fe" stroke-width="1"/>
  <circle cx="190" cy="360" r="12" fill="#0ea5e9"/>
  <rect x="210" y="352" width="90" height="8" rx="4" fill="#cbd5e1"/>
  <rect x="210" y="364" width="50" height="6" rx="3" fill="#e2e8f0"/>
  <rect x="350" y="352" width="60" height="16" rx="8" fill="#10b981"/>
  
  <!-- Bottom nav -->
  <rect x="170" y="400" width="260" height="30" rx="15" fill="#0ea5e9"/>
  <circle cx="210" cy="415" r="8" fill="#ffffff"/>
  <circle cx="260" cy="415" r="8" fill="#bae6fd"/>
  <circle cx="310" cy="415" r="8" fill="#bae6fd"/>
  <circle cx="360" cy="415" r="8" fill="#bae6fd"/>
  
  <!-- Decorative elements -->
  <circle cx="80" cy="100" r="30" fill="#bae6fd" opacity="0.5"/>
  <circle cx="520" cy="150" r="40" fill="#7dd3fc" opacity="0.3"/>
  <circle cx="50" cy="350" r="25" fill="#0ea5e9" opacity="0.4"/>
  <circle cx="540" cy="380" r="35" fill="#38bdf8" opacity="0.3"/>
</svg>

